<?xml version="1.0" standalone="no"?>
<!DOCTYPE svg PUBLIC "-//W3C//DTD SVG 20010904//EN"
 "http://www.w3.org/TR/2001/REC-SVG-20010904/DTD/svg10.dtd">
<svg version="1.0" xmlns="http://www.w3.org/2000/svg"
 width="512.000000pt" height="512.000000pt" viewBox="0 0 512.000000 512.000000"
 preserveAspectRatio="xMidYMid meet">
<metadata>
Created by potrace 1.14, written by Peter Selinger 2001-2017
</metadata>
<g transform="translate(0.000000,512.000000) scale(0.100000,-0.100000)"
fill="#000000" stroke="none">
<path d="M2379 5116 c-2 -2 -38 -6 -79 -10 -64 -6 -213 -30 -315 -51 -16 -3
-69 -17 -116 -30 -740 -208 -1350 -740 -1657 -1445 -90 -209 -163 -465 -186
-655 -4 -27 -10 -81 -15 -120 -9 -75 -6 -477 4 -535 3 -19 13 -78 21 -130 69
-426 254 -839 533 -1188 95 -119 269 -294 370 -373 39 -30 70 -60 71 -67 0
-13 69 -82 81 -82 4 0 36 -17 70 -39 64 -38 298 -156 395 -199 136 -59 430
-144 549 -158 33 -3 68 -8 78 -10 59 -11 232 -18 437 -19 230 0 289 4 400 25
30 6 66 13 80 15 55 10 73 15 165 40 360 98 815 325 815 406 0 10 18 30 41 46
123 84 260 214 418 398 129 149 308 451 389 655 65 165 128 375 146 490 3 19
8 44 10 55 2 12 7 48 11 80 4 33 10 69 12 80 11 51 9 439 -3 545 -16 136 -47
298 -75 394 -12 38 -22 76 -24 85 -4 18 -51 146 -85 231 -37 93 -153 310 -223
417 -370 561 -965 967 -1607 1097 -108 22 -130 25 -180 31 -25 3 -56 8 -70 11
-28 6 -456 15 -461 10z"/>
</g>
</svg>
